<svg width="246" height="369" xmlns="http://www.w3.org/2000/svg"><path d="M243.937.055a2 2 0 0 1 2.008 2.002v168.995c0 1.106-.814 2.388-1.802 2.855l-118.895 56.186c-.996.47-2.617.467-3.605 0L2.748 173.907c-.996-.47-1.803-1.742-1.803-2.855V2.057C.945.951 1.832.055 2.953.055h240.984zM110.391 139.367V66.383l-25.032 47.32h-9.843l-24.891-47.32v72.984h-15.68V42.055h20.18l25.594 49.64 25.804-49.64h19.688v97.312h-15.82zm104.101-48.656c0 9.562-.984 17.484-2.953 23.766-1.969 6.28-4.91 11.261-8.824 14.941-3.914 3.68-8.754 6.258-14.52 7.734-5.765 1.477-12.445 2.215-20.039 2.215h-27.21V42.055h26.929c7.781 0 14.59.82 20.426 2.46 5.836 1.641 10.699 4.36 14.59 8.157 3.89 3.797 6.796 8.8 8.718 15.012 1.922 6.21 2.883 13.886 2.883 23.027zm-18.289-16.508c-1.031-4.312-2.742-7.746-5.133-10.3-2.39-2.555-5.554-4.348-9.492-5.38-3.937-1.03-8.812-1.546-14.625-1.546h-9.21v67.359h9.21c5.906 0 10.828-.55 14.766-1.652 3.937-1.102 7.101-2.954 9.492-5.555 2.39-2.602 4.078-6.07 5.062-10.406.985-4.336 1.477-9.739 1.477-16.207 0-6.563-.516-12-1.547-16.313zM51.219 339.805c0 4.922-.574 9.187-1.723 12.797-1.148 3.609-2.93 6.597-5.344 8.964-2.414 2.368-5.507 4.114-9.28 5.239-3.774 1.125-8.263 1.687-13.466 1.687-1.265 0-2.718-.082-4.36-.246a60.81 60.81 0 0 1-5.097-.738 80.327 80.327 0 0 1-5.238-1.16A49.492 49.492 0 0 1 2 364.906l5.484-14.414c.704.375 1.653.762 2.848 1.16 1.195.399 2.45.762 3.762 1.09a56.72 56.72 0 0 0 3.972.844c1.336.234 2.496.351 3.48.351 2.673 0 4.864-.316 6.575-.949 1.711-.633 3.07-1.699 4.078-3.199 1.008-1.5 1.7-3.492 2.074-5.976.375-2.485.563-5.602.563-9.352V269h16.383v70.805zM151.688 339c0 5.484-.973 10.09-2.918 13.816-1.946 3.727-4.582 6.75-7.91 9.07-3.329 2.321-7.208 3.985-11.637 4.993-4.43 1.008-9.13 1.512-14.098 1.512-5.25 0-9.844-.493-13.781-1.477-3.938-.984-7.383-2.32-10.336-4.008-2.953-1.687-5.473-3.656-7.559-5.906A43.715 43.715 0 0 1 78 349.758l12.938-9.352a42.058 42.058 0 0 0 3.902 5.168 23.723 23.723 0 0 0 4.992 4.254c1.898 1.219 4.113 2.192 6.645 2.918 2.53.727 5.46 1.09 8.789 1.09 2.484 0 4.91-.234 7.277-.703s4.465-1.242 6.293-2.32c1.828-1.079 3.293-2.485 4.394-4.22 1.102-1.734 1.653-3.89 1.653-6.468 0-2.438-.528-4.477-1.582-6.117-1.055-1.64-2.473-3.024-4.254-4.149-1.781-1.125-3.867-2.062-6.258-2.812-2.39-.75-4.945-1.477-7.664-2.18a266.328 266.328 0 0 1-13.852-3.902c-4.265-1.336-7.968-3.035-11.109-5.098-3.14-2.062-5.613-4.687-7.418-7.875-1.805-3.187-2.707-7.265-2.707-12.234 0-4.406.75-8.38 2.25-11.918a24.403 24.403 0 0 1 6.61-9.07c2.906-2.508 6.527-4.43 10.863-5.766 4.336-1.336 9.316-2.004 14.941-2.004 4.219 0 8.074.387 11.567 1.16 3.492.774 6.656 1.899 9.492 3.375a32.403 32.403 0 0 1 7.629 5.485 37.377 37.377 0 0 1 5.906 7.418l-12.727 9.492c-2.578-4.125-5.625-7.22-9.14-9.282-3.516-2.062-7.805-3.093-12.868-3.093-5.484 0-9.832 1.125-13.042 3.375-3.211 2.25-4.817 5.437-4.817 9.562 0 2.063.434 3.785 1.3 5.168.868 1.383 2.204 2.59 4.009 3.621 1.804 1.032 4.078 1.957 6.82 2.778 2.742.82 5.988 1.675 9.738 2.566a193.01 193.01 0 0 1 8.473 2.25 67.888 67.888 0 0 1 7.805 2.777 38.465 38.465 0 0 1 6.785 3.727 22.237 22.237 0 0 1 5.308 5.168c1.477 2.016 2.637 4.371 3.48 7.066.845 2.696 1.267 5.824 1.267 9.387zM164 367.313l31.992-48.797L164.844 270h18.914l21.586 35.648L227.633 270h18.281l-31.5 48.094 31.36 49.219H227.07l-22.289-36.282-22.64 36.281z" fill="#fefefe" fill-rule="evenodd"/></svg>