<svg width="500" height="500" viewBox="0 0 500 500" fill="none" xmlns="http://www.w3.org/2000/svg">
<path d="M342.717 257.555H346.232C359.025 257.555 367.424 267.516 371.428 287.438C372.99 324.547 374.553 343.102 376.115 343.102C378.947 348.57 382.854 351.305 387.834 351.305C398.088 351.305 406.877 344.469 414.201 330.797C414.982 326.988 415.373 324.84 415.373 324.352C415.373 320.152 410.686 310.387 401.311 295.055C399.748 290.66 398.967 286.559 398.967 282.75C398.967 272.105 406.584 265.66 421.818 263.414C437.639 263.414 448.186 273.18 453.459 292.711V303.258C453.459 322.301 439.787 343.395 412.443 366.539C400.529 374.742 390.373 380.602 381.975 384.117L381.389 388.219C381.389 397.105 393.303 407.848 417.131 420.445C432.365 431.09 439.982 441.441 439.982 451.5C439.982 462.73 433.146 469.176 419.475 470.836H416.545C403.654 470.836 387.248 460.68 367.326 440.367L360.881 436.852C357.561 436.852 352.092 444.469 344.475 459.703C335.588 471.031 326.604 476.695 317.521 476.695H316.35C304.338 476.695 297.307 469.469 295.256 455.016V452.672C295.256 437.535 305.998 418.98 327.482 397.008C339.592 383.824 345.646 372.105 345.646 361.852V360.68C345.646 350.035 338.42 336.559 323.967 320.25C316.154 310.094 312.248 301.5 312.248 294.469V288.609C312.248 276.305 320.061 266.344 335.686 258.727C338.42 257.945 340.764 257.555 342.717 257.555Z" fill="#FF5A00"/>
<path d="M257.756 268.102C274.553 268.102 287.248 276.695 295.842 293.883C298.576 300.23 299.943 306.285 299.943 312.047C299.943 329.332 291.74 341.246 275.334 347.789C273.088 348.57 270.549 348.961 267.717 348.961C255.51 348.961 247.111 341.93 242.521 327.867C241.057 315.758 239.689 309.703 238.42 309.703H237.834C234.709 311.559 233.146 315.074 233.146 320.25C233.146 331.188 243.498 348.961 264.201 373.57C274.748 389.391 280.021 405.016 280.021 420.445V421.031C280.021 448.668 267.131 466.637 241.35 474.938C237.639 475.719 234.709 476.109 232.561 476.109H227.287C206.389 476.109 188.42 464.391 173.381 440.953C167.912 428.551 165.178 418.199 165.178 409.898V402.867C165.178 387.438 172.209 375.523 186.271 367.125C191.35 365.172 195.842 364.195 199.748 364.195C214.201 364.195 225.334 372.008 233.146 387.633C233.928 391.246 234.318 394.176 234.318 396.422C234.318 406.578 226.701 415.562 211.467 423.375C209.123 424.938 207.756 426.695 207.365 428.648C207.365 433.141 214.006 436.266 227.287 438.023C245.256 435.973 254.24 428.16 254.24 414.586C254.24 401.988 245.256 383.434 227.287 358.922C217.131 343.004 212.053 328.941 212.053 316.734V315.562C212.053 293.688 223.771 278.258 247.209 269.273C252.971 268.492 256.486 268.102 257.756 268.102Z" fill="#FF5A00"/>
<path d="M155.803 268.688H156.389C167.131 268.688 175.725 275.133 182.17 288.023C184.123 292.027 185.1 296.324 185.1 300.914V303.258C185.1 316.734 178.459 326.109 165.178 331.383L158.732 332.555C155.314 332.164 152.385 331.969 149.943 331.969H146.428C145.158 331.969 144.182 333.922 143.498 337.828C148.576 365.953 151.115 382.75 151.115 388.219V396.422C151.115 427.965 138.42 450.816 113.029 464.977C106.291 468.102 99.6504 469.664 93.1074 469.664H87.248C71.8184 469.664 59.709 461.266 50.9199 444.469C48.9668 439 47.9902 434.312 47.9902 430.406V424.547C47.9902 409.02 56.1934 395.738 72.5996 384.703C77.873 382.359 82.1699 381.188 85.4902 381.188H91.3496C97.502 381.188 102.58 384.508 106.584 391.148C107.756 393.004 108.342 395.543 108.342 398.766C108.342 403.355 104.045 412.145 95.4512 425.133C94.6699 427.672 94.2793 429.43 94.2793 430.406V430.992C94.6699 434.117 96.0371 435.68 98.3809 435.68C106.877 435.68 114.299 425.719 120.646 405.797C122.209 397.203 122.99 390.172 122.99 384.703V375.914C122.014 351.598 116.154 336.754 105.412 331.383C101.604 329.918 92.4238 327.965 77.873 325.523C65.7637 319.957 59.709 312.145 59.709 302.086C59.709 292.125 67.3262 285.289 82.5605 281.578C113.908 278.844 135.393 275.133 147.014 270.445C149.846 269.273 152.775 268.688 155.803 268.688Z" fill="#FF5A00"/>
<path d="M410.832 31.6172H416.105C426.652 31.6172 436.418 36.3047 445.402 45.6797C453.605 55.6406 457.707 66.5781 457.707 78.4922C457.707 96.4609 446.574 119.117 424.309 146.461C415.324 158.18 410.832 166.969 410.832 172.828V173.414C410.832 174.293 411.809 174.879 413.762 175.172C418.742 175.172 431.633 168.336 452.434 154.664C459.562 150.758 465.617 148.805 470.598 148.805C480.266 148.805 487.102 154.859 491.105 166.969C491.887 169.898 492.277 172.633 492.277 175.172V179.859C492.277 199.781 482.121 215.211 461.809 226.148C455.461 228.492 449.016 229.664 442.473 229.664H441.887C439.152 229.664 427.434 228.492 406.73 226.148L382.707 229.664C373.723 229.664 368.645 223.414 367.473 210.914V209.742C367.473 194.02 381.145 168.434 408.488 132.984C421.77 114.82 428.41 98.4141 428.41 83.7656C428.41 78.5898 427.629 74.293 426.066 70.875C418.449 70.875 412.395 78.6875 407.902 94.3125C399.797 107.984 390.422 114.82 379.777 114.82H376.848C366.301 114.82 358.684 108.18 353.996 94.8984C353.605 90.0156 353.41 87.4766 353.41 87.2812C353.41 67.75 365.91 50.7578 390.91 36.3047C399.406 33.1797 406.047 31.6172 410.832 31.6172Z" fill="#FF5A00"/>
<path d="M266.984 32.2031H270.5C295.402 32.2031 315.715 45.0938 331.438 70.875C339.25 86.6953 343.156 104.859 343.156 125.367C343.156 162.867 331.633 191.383 308.586 210.914C295.988 218.727 286.223 222.633 279.289 222.633C258.879 225.758 238.762 230.445 218.938 236.695C216.887 236.695 215.129 236.891 213.664 237.281C201.945 236.207 196.086 230.543 196.086 220.289V219.117C196.086 205.836 206.438 188.258 227.141 166.383C238.078 151.246 243.547 135.816 243.547 120.094C243.547 109.742 241.008 101.539 235.93 95.4844C231.145 98.2188 226.262 99.5859 221.281 99.5859H219.523C207.414 98.3164 201.359 92.2617 201.359 81.4219V80.8359C201.359 64.8203 213.664 50.7578 238.273 38.6484C247.844 34.3516 257.414 32.2031 266.984 32.2031ZM264.055 88.4531C266.398 105.445 267.57 115.992 267.57 120.094V121.266C267.57 128.688 264.836 143.922 259.367 166.969V173.414C260.93 184.742 266.203 190.406 275.188 190.406C302.141 175.758 315.617 155.055 315.617 128.297V123.609C315.617 100.465 307.609 83.082 291.594 71.4609C288.176 69.5078 284.66 68.5312 281.047 68.5312C271.379 68.5312 265.715 75.1719 264.055 88.4531Z" fill="#FF5A00"/>
<path d="M149.211 24H149.797C165.91 24 177.629 38.4531 184.953 67.3594C186.516 76.2461 187.297 84.4492 187.297 91.9688C187.297 99.293 184.758 126.051 179.68 172.242V175.172C180.07 193.531 180.266 207.008 180.266 215.602C180.266 224.977 178.312 229.664 174.406 229.664C171.867 229.664 169.523 224.977 167.375 215.602L166.203 215.016C161.223 219.703 156.926 222.047 153.312 222.047C146.672 222.047 142.18 214.43 139.836 199.195C139.445 195.191 139.25 192.066 139.25 189.82C139.25 179.762 143.352 154.176 151.555 113.062C152.336 104.566 152.727 98.1211 152.727 93.7266C152.727 80.0547 150.188 70.875 145.109 66.1875C144.426 65.7969 143.645 65.6016 142.766 65.6016H142.18C138.762 65.6016 135.637 73.6094 132.805 89.625C131.73 97.0469 130.559 121.461 129.289 162.867C127.531 175.367 124.016 181.617 118.742 181.617C111.125 181.617 104.68 157.984 99.4062 110.719C93.0586 83.7656 85.0508 70.2891 75.3828 70.2891C69.6211 70.2891 66.3008 77.3203 65.4219 91.3828V91.9688C65.4219 104.273 70.3047 126.344 80.0703 158.18C82.0234 167.652 83 175.27 83 181.031C83 204.371 72.4531 219.996 51.3594 227.906C48.4297 228.688 45.6953 229.078 43.1562 229.078H41.3984C23.5273 229.078 12.3945 216.383 8 190.992C11.9062 180.934 17.9609 173.707 26.1641 169.312C42.5703 162.379 50.7734 154.371 50.7734 145.289V140.016C50.7734 137.77 47.8438 118.629 41.9844 82.5938V71.4609C41.9844 47.5352 49.4062 33.2773 64.25 28.6875C64.7383 28.2969 66.1055 28.1016 68.3516 28.1016H69.5234C80.0703 28.1016 92.1797 37.6719 105.852 56.8125C108.098 58.8633 110.441 60.6211 112.883 62.0859C115.715 61.6953 120.598 53.8828 127.531 38.6484C133.879 28.8828 141.105 24 149.211 24Z" fill="#FF5A00"/>
</svg>
